<?xml version="1.0" standalone="no"?>
<!DOCTYPE svg PUBLIC "-//W3C//DTD SVG 20010904//EN"
 "http://www.w3.org/TR/2001/REC-SVG-20010904/DTD/svg10.dtd">
<svg version="1.0" xmlns="http://www.w3.org/2000/svg"
 width="500.000000pt" height="190.000000pt" viewBox="0 0 500.000000 190.000000"
 preserveAspectRatio="xMidYMid meet">
<metadata>
Created by potrace 1.14, written by Peter Selinger 2001-2017
</metadata>
<g transform="translate(0.000000,190.000000) scale(0.100000,-0.100000)"
fill="#000000" stroke="none">
<path d="M3260 865 l0 -255 40 0 40 0 0 121 c0 120 0 121 29 150 40 40 100 41
130 3 19 -24 21 -40 21 -150 l0 -124 40 0 40 0 -1 128 c0 71 -5 142 -12 162
-30 86 -161 109 -226 39 l-21 -23 0 102 0 102 -40 0 -40 0 0 -255z"/>
<path d="M4160 865 l0 -255 35 0 c31 0 35 3 35 26 l0 25 31 -22 c117 -83 269
4 269 154 0 107 -75 187 -176 187 -39 0 -68 -12 -101 -43 l-23 -20 0 101 0
102 -35 0 -35 0 0 -255z m246 27 c32 -25 44 -55 44 -105 0 -55 -27 -92 -79
-108 -121 -36 -194 142 -89 215 30 21 98 20 124 -2z"/>
<path d="M1230 958 c-61 -42 -75 -71 -75 -153 0 -59 4 -79 21 -102 64 -86 165
-98 243 -29 l24 21 -6 -48 c-9 -64 -22 -86 -62 -103 -47 -19 -84 -18 -130 6
-41 21 -41 20 -66 -22 -8 -14 -2 -21 33 -40 53 -27 157 -30 203 -6 81 43 94
86 95 316 l0 182 -40 0 c-36 0 -40 -3 -40 -25 l0 -24 -36 24 c-49 33 -118 34
-164 3z m149 -52 c58 -31 71 -128 22 -177 -40 -40 -106 -41 -144 -3 -91 90 9
238 122 180z"/>
<path d="M1620 795 l0 -185 40 0 40 0 0 185 0 185 -40 0 -40 0 0 -185z"/>
<path d="M1777 938 c9 -24 42 -106 73 -183 l56 -140 45 -3 45 -3 67 168 c36
92 69 176 73 186 5 14 0 17 -32 17 l-39 0 -54 -136 c-29 -74 -57 -132 -61
-127 -5 4 -32 65 -60 136 l-53 127 -38 0 -39 0 17 -42z"/>
<path d="M2283 961 c-131 -60 -132 -269 0 -337 44 -23 135 -21 185 5 51 26 54
31 33 60 l-17 23 -35 -21 c-55 -34 -125 -25 -168 20 -42 45 -32 49 125 49
l147 0 -6 55 c-7 73 -32 113 -86 142 -54 28 -120 30 -178 4z m132 -55 c34 -14
55 -41 55 -70 0 -14 -16 -16 -105 -16 -113 0 -120 4 -89 49 16 22 66 50 92 51
7 0 28 -6 47 -14z"/>
<path d="M2640 795 l0 -185 35 0 35 0 0 88 c0 48 5 104 10 124 12 42 52 78 86
78 21 0 24 5 24 40 0 33 -3 40 -20 40 -11 0 -38 -16 -60 -36 l-40 -36 0 36 c0
34 -1 36 -35 36 l-35 0 0 -185z"/>
<path d="M2963 965 c-35 -15 -63 -60 -63 -100 0 -26 50 -85 71 -85 24 0 118
-43 123 -57 10 -24 -23 -53 -59 -53 -18 0 -52 11 -77 24 l-45 24 -17 -30 c-10
-16 -16 -31 -14 -32 14 -13 73 -37 110 -45 92 -21 178 29 178 105 0 64 -28 90
-130 120 -26 8 -54 21 -61 30 -11 14 -10 19 10 35 28 23 60 24 108 4 20 -8 37
-14 38 -13 6 8 25 48 25 53 0 3 -16 13 -35 21 -43 18 -120 18 -162 -1z"/>
<path d="M3710 840 c0 -156 9 -189 58 -214 59 -30 122 -24 167 15 l35 31 0
-31 c0 -29 3 -31 35 -31 l35 0 0 185 0 185 -34 0 -34 0 -3 -124 c-4 -138 -12
-155 -75 -176 -26 -9 -40 -8 -61 2 -44 21 -53 51 -53 181 l0 117 -35 0 -35 0
0 -140z"/>
</g>
</svg>
