<?xml version="1.0" standalone="no"?>
<!DOCTYPE svg PUBLIC "-//W3C//DTD SVG 20010904//EN"
 "http://www.w3.org/TR/2001/REC-SVG-20010904/DTD/svg10.dtd">
<svg version="1.0" xmlns="http://www.w3.org/2000/svg"
 width="800.000000pt" height="800.000000pt" viewBox="0 0 800.000000 800.000000"
 preserveAspectRatio="xMidYMid meet">
<metadata>
Created by potrace 1.14, written by Peter Selinger 2001-2017
</metadata>
<g transform="translate(0.000000,800.000000) scale(0.100000,-0.100000)"
fill="#000000" stroke="none">
<path d="M3610 7985 c-1191 -119 -2251 -748 -2922 -1735 -361 -530 -581 -1116
-665 -1765 -26 -201 -26 -769 0 -970 126 -980 585 -1856 1307 -2499 656 -584
1458 -931 2325 -1005 154 -14 536 -14 690 0 566 48 1145 226 1620 498 1120
640 1847 1727 2012 3006 26 201 26 769 0 970 -126 978 -582 1852 -1302 2494
-651 582 -1428 922 -2295 1006 -177 18 -596 18 -770 0z"/>
</g>
</svg>
